REM DIRINDEX 1\5,1\2\6,1\2\7,1\3\8,1\3\9,1\3\10,1\3\11,1\4\12,1\4\13,1\4\14
REM DIRNAME cjc043,folder01,folder02,folder03,folder04,folder05,folder06,folder07,folder08,folder09,folder10,folder11,folder12,folder13
TITLE ""
FILE "5Q_h_077-088.mp3" MP3
  TRACK 01 AUDIO
    TITLE "5:cjc043_0233"
    INDEX 01 00:00:00
  TRACK 02 AUDIO
    TITLE "0:"
    INDEX 01 00:03:70
  TRACK 03 AUDIO
    TITLE "12:cjc043_0234"
    INDEX 01 00:04:46
  TRACK 04 AUDIO
    TITLE "0:"
    INDEX 01 00:06:31
  TRACK 05 AUDIO
    TITLE "13:cjc043_0235"
    INDEX 01 00:07:00
  TRACK 06 AUDIO
    TITLE "0:"
    INDEX 01 00:08:60
  TRACK 07 AUDIO
    TITLE "14:cjc043_0236"
    INDEX 01 00:09:28
  TRACK 08 AUDIO
    TITLE "0:"
    INDEX 01 00:11:35
  TRACK 09 AUDIO
    TITLE "12:cjc043_0237"
    INDEX 01 00:12:14
  TRACK 10 AUDIO
    TITLE "0:"
    INDEX 01 00:14:15
  TRACK 11 AUDIO
    TITLE "13:cjc043_0238"
    INDEX 01 00:14:68
  TRACK 12 AUDIO
    TITLE "0:"
    INDEX 01 00:16:69
  TRACK 13 AUDIO
    TITLE "14:cjc043_0239"
    INDEX 01 00:17:47
  TRACK 14 AUDIO
    TITLE "0:"
    INDEX 01 00:19:42
  TRACK 15 AUDIO
    TITLE "12:cjc043_0240"
    INDEX 01 00:20:16
  TRACK 16 AUDIO
    TITLE "0:"
    INDEX 01 00:22:60
  TRACK 17 AUDIO
    TITLE "13:cjc043_0241"
    INDEX 01 00:23:38
  TRACK 18 AUDIO
    TITLE "0:"
    INDEX 01 00:26:03
  TRACK 19 AUDIO
    TITLE "14:cjc043_0242"
    INDEX 01 00:26:58
  TRACK 20 AUDIO
    TITLE "0:"
    INDEX 01 00:28:57
  TRACK 21 AUDIO
    TITLE "12:cjc043_0243"
    INDEX 01 00:29:36
  TRACK 22 AUDIO
    TITLE "0:"
    INDEX 01 00:32:23
  TRACK 23 AUDIO
    TITLE "13:cjc043_0244"
    INDEX 01 00:33:03
  TRACK 24 AUDIO
    TITLE "0:"
    INDEX 01 00:35:66
  TRACK 25 AUDIO
    TITLE "14:cjc043_0245"
    INDEX 01 00:36:42
  TRACK 26 AUDIO
    TITLE "0:"
    INDEX 01 00:39:66
  TRACK 27 AUDIO
    TITLE "12:cjc043_0246"
    INDEX 01 00:40:48
  TRACK 28 AUDIO
    TITLE "0:"
    INDEX 01 00:42:21
  TRACK 29 AUDIO
    TITLE "13:cjc043_0247"
    INDEX 01 00:43:01
  TRACK 30 AUDIO
    TITLE "0:"
    INDEX 01 00:44:48
  TRACK 31 AUDIO
    TITLE "14:cjc043_0248"
    INDEX 01 00:45:28
  TRACK 32 AUDIO
    TITLE "0:"
    INDEX 01 00:47:23
  TRACK 33 AUDIO
    TITLE "12:cjc043_0249"
    INDEX 01 00:47:72
  TRACK 34 AUDIO
    TITLE "0:"
    INDEX 01 00:50:15
  TRACK 35 AUDIO
    TITLE "13:cjc043_0250"
    INDEX 01 00:51:03
  TRACK 36 AUDIO
    TITLE "0:"
    INDEX 01 00:53:21
  TRACK 37 AUDIO
    TITLE "14:cjc043_0251"
    INDEX 01 00:54:09
  TRACK 38 AUDIO
    TITLE "0:"
    INDEX 01 00:56:24
  TRACK 39 AUDIO
    TITLE "12:cjc043_0252"
    INDEX 01 00:57:03
  TRACK 40 AUDIO
    TITLE "0:"
    INDEX 01 00:59:30
  TRACK 41 AUDIO
    TITLE "13:cjc043_0253"
    INDEX 01 01:00:12
  TRACK 42 AUDIO
    TITLE "0:"
    INDEX 01 01:02:38
  TRACK 43 AUDIO
    TITLE "14:cjc043_0254"
    INDEX 01 01:03:20
  TRACK 44 AUDIO
    TITLE "0:"
    INDEX 01 01:06:06
  TRACK 45 AUDIO
    TITLE "12:cjc043_0255"
    INDEX 01 01:06:59
  TRACK 46 AUDIO
    TITLE "0:"
    INDEX 01 01:09:61
  TRACK 47 AUDIO
    TITLE "13:cjc043_0256"
    INDEX 01 01:10:37
  TRACK 48 AUDIO
    TITLE "0:"
    INDEX 01 01:13:38
  TRACK 49 AUDIO
    TITLE "14:cjc043_0257"
    INDEX 01 01:14:19
  TRACK 50 AUDIO
    TITLE "0:"
    INDEX 01 01:17:00
  TRACK 51 AUDIO
    TITLE "12:cjc043_0258"
    INDEX 01 01:17:51
  TRACK 52 AUDIO
    TITLE "0:"
    INDEX 01 01:20:51
  TRACK 53 AUDIO
    TITLE "13:cjc043_0259"
    INDEX 01 01:21:31
  TRACK 54 AUDIO
    TITLE "0:"
    INDEX 01 01:24:30
  TRACK 55 AUDIO
    TITLE "14:cjc043_0260"
    INDEX 01 01:25:09
  TRACK 56 AUDIO
    TITLE "0:"
    INDEX 01 01:27:65
  TRACK 57 AUDIO
    TITLE "12:cjc043_0261"
    INDEX 01 01:28:45
  TRACK 58 AUDIO
    TITLE "0:"
    INDEX 01 01:31:71
  TRACK 59 AUDIO
    TITLE "13:cjc043_0262"
    INDEX 01 01:32:45
  TRACK 60 AUDIO
    TITLE "0:"
    INDEX 01 01:35:73
  TRACK 61 AUDIO
    TITLE "14:cjc043_0263"
    INDEX 01 01:36:45
  TRACK 62 AUDIO
    TITLE "0:"
    INDEX 01 01:39:53
  TRACK 63 AUDIO
    TITLE "12:cjc043_0264"
    INDEX 01 01:40:31
  TRACK 64 AUDIO
    TITLE "0:"
    INDEX 01 01:42:47
  TRACK 65 AUDIO
    TITLE "13:cjc043_0265"
    INDEX 01 01:43:25
  TRACK 66 AUDIO
    TITLE "0:"
    INDEX 01 01:45:44
  TRACK 67 AUDIO
    TITLE "14:cjc043_0266"
    INDEX 01 01:46:23
  TRACK 68 AUDIO
    TITLE "0:"
    INDEX 01 01:48:54
  TRACK 69 AUDIO
    TITLE "12:cjc043_0267"
    INDEX 01 01:49:28
  TRACK 70 AUDIO
    TITLE "0:"
    INDEX 01 01:52:04
  TRACK 71 AUDIO
    TITLE "13:cjc043_0268"
    INDEX 01 01:52:59
  TRACK 72 AUDIO
    TITLE "0:"
    INDEX 01 01:55:36
  TRACK 73 AUDIO
    TITLE "14:cjc043_0269"
    INDEX 01 01:56:20
  TRACK 74 AUDIO
    TITLE "0:"
    INDEX 01 01:59:63
